<?xml version="1.0" encoding="utf-8"?>
<!-- Generator: Adobe Illustrator 16.0.0, SVG Export Plug-In . SVG Version: 6.00 Build 0)  -->
<!DOCTYPE svg PUBLIC "-//W3C//DTD SVG 1.1//EN" "http://www.w3.org/Graphics/SVG/1.1/DTD/svg11.dtd">
<svg version="1.1" id="Layer_1" xmlns="http://www.w3.org/2000/svg" xmlns:xlink="http://www.w3.org/1999/xlink" x="0px" y="0px"
	 width="112px" height="36px" viewBox="0 0 112 36" enable-background="new 0 0 112 36" xml:space="preserve">
<path fill="#FFFFFF" d="M69.314,22.77c0,0,0.108,5.107-6.078,5.107c-6.188,0-6.08-5.107-6.08-5.107V9.506h-2.328V23.32
	c0,0-0.228,6.701,8.408,6.701c8.635,0,8.406-6.701,8.406-6.701V9.506h-2.328v13.951V22.77z"/>
<polygon fill="#FFFFFF" points="91.035,9.506 88.21,9.506 82.555,17.505 76.896,9.506 74.191,9.506 81.176,19.514 73.967,29.693 
	76.814,29.693 82.596,21.488 88.374,29.693 91.139,29.693 83.932,19.514 "/>
<rect x="94.783" y="9.506" fill="#FFFFFF" width="2.328" height="20.188"/>
<path fill="#FFFFFF" d="M107.293,27.877c-1.223,0-2.066-0.242-2.581-0.742c-0.519-0.502-0.771-1.314-0.771-2.488V11.57h5.689V9.506
	h-5.689V3.602h-2.328v20.882c0,1.193,0.195,2.207,0.578,3.007c0.375,0.778,0.867,1.339,1.467,1.661
	c0.636,0.346,1.212,0.578,1.711,0.693c0.503,0.116,1.027,0.176,1.557,0.176h4.795v-2.146L107.293,27.877L107.293,27.877z"/>
<path fill="#FFFFFF" d="M42.967,29.695l-2.328-0.002V15.044c0-1.194,0.194-2.205,0.579-3.006c0.375-0.779,0.867-1.339,1.465-1.663
	c0.637-0.345,1.212-0.577,1.713-0.692c0.502-0.117,1.025-0.177,1.555-0.177h5.856v2.146h-5.489c-1.223,0-2.067,0.242-2.582,0.741
	c-0.519,0.503-0.771,1.316-0.771,2.488v14.814H42.967z"/>
<circle fill="#FFFFFF" cx="95.947" cy="5.323" r="1.548"/>
<path fill="#00A6FB" d="M12.063,2.962c-0.445,2.414-1.025,5.981-1.326,9.601c-0.53,6.391-0.203,10.671-0.203,10.671L1.546,31.79
	c0,0-0.693-4.802-1.044-10.2c-0.215-3.328-0.279-6.285-0.294-8.063C0.207,13.42,0.26,13.32,0.26,13.222
	c-0.001-0.115,0.151-1.313,1.319-2.423C2.861,9.582,12.195,2.254,12.063,2.962z"/>
<path opacity="0.35" fill="#00A6FB" enable-background="new    " d="M12.063,2.962c-0.445,2.414-1.025,5.981-1.326,9.601
	c0,0-9.955-1.189-10.528,1.209c0-0.115,0.166-1.589,1.334-2.699C2.827,9.856,12.195,2.254,12.063,2.962z"/>
<path fill="#BEDF2A" d="M0.204,13.22c0.001,0.171,0.003,0.356,0.005,0.553c0.106-0.438,0.27-0.743,0.634-1.205
	c0.74-0.938,1.934-1.183,2.413-1.247c2.434-0.318,6.026-0.71,9.656-0.823c6.41-0.198,10.65,0.334,10.65,0.334l8.989-8.556
	c0,0-4.717-0.9-10.092-1.532c-3.51-0.412-6.613-0.63-8.342-0.732c-0.116-0.007-1.361-0.159-2.53,0.951
	c-1.283,1.216-7.716,7.323-10.303,9.779C0.117,11.854,0.204,13.105,0.204,13.22z"/>
<path fill="#8544B3" d="M32.219,24.141c-2.434,0.328-6.025,0.729-9.654,0.853c-6.411,0.215-10.669-0.324-10.669-0.324l-8.989,8.556
	c0,0,4.761,0.93,10.136,1.547c3.283,0.377,6.21,0.584,7.99,0.689c0.124,0.008,0.335-0.104,0.448-0.098
	c0.116,0.008,1.37-0.223,2.536-1.336C25.296,32.807,32.932,24.045,32.219,24.141z"/>
<path opacity="0.35" fill="#8544B3" enable-background="new    " d="M32.219,24.141c-2.434,0.328-6.025,0.729-9.654,0.853
	c0,0,0.696,10.001-1.729,10.454c0.116,0.007,1.764-0.078,2.931-1.19C25.045,33.035,32.932,24.045,32.219,24.141z"/>
<path fill="#7DC540" d="M21.388,35.48c-0.17-0.012-0.355-0.021-0.552-0.035c0.443-0.084,0.757-0.231,1.235-0.571
	c0.974-0.692,1.278-1.873,1.364-2.351c0.439-2.414,1.008-5.982,1.3-9.604c0.514-6.393,0.191-10.654,0.191-10.654l8.988-8.555
	c0,0,0.667,4.755,1.032,10.154c0.238,3.527,0.304,6.638,0.32,8.37c0,0.115,0.092,1.365-1.075,2.479
	c-1.279,1.223-7.695,7.348-10.275,9.809C22.749,35.635,21.504,35.484,21.388,35.48z"/>
</svg>
